<?xml version="1.0" standalone="no"?><!DOCTYPE svg PUBLIC "-//W3C//DTD SVG 1.1//EN" "http://www.w3.org/Graphics/SVG/1.1/DTD/svg11.dtd"><svg t="1730190673811" class="icon" viewBox="0 0 1024 1024" version="1.1" xmlns="http://www.w3.org/2000/svg" p-id="4333" width="32" height="32" xmlns:xlink="http://www.w3.org/1999/xlink"><path d="M920.32 841.813333l-172.373333-172.373333a365.781333 365.781333 0 0 0 71.253333-217.173333c0-202.24-164.693333-366.933333-366.933333-366.933334S85.333333 250.026667 85.333333 452.266667s164.693333 366.933333 366.933334 366.933333c81.066667 0 156.16-26.453333 217.173333-71.253333l172.373333 172.373333c10.666667 10.666667 25.173333 16.213333 39.253334 16.213333a55.381333 55.381333 0 0 0 39.253333-94.72zM175.786667 452.266667c0-152.746667 124.16-276.906667 276.906666-276.906667s276.906667 124.16 276.906667 276.906667-124.16 276.906667-276.906667 276.906666-276.906667-124.16-276.906666-276.906666z" fill="#e6e6e6" p-id="4334"></path></svg>